<?xml version="1.0" encoding="utf-8"?>
<!-- Generator: Adobe Illustrator 19.0.0, SVG Export Plug-In . SVG Version: 6.00 Build 0)  -->
<svg version="1.1" id="Ebene_1" xmlns="http://www.w3.org/2000/svg" xmlns:xlink="http://www.w3.org/1999/xlink" x="0px" y="0px"
	 viewBox="0 0 206.3 366.8" style="enable-background:new 0 0 206.3 366.8;" xml:space="preserve">
<style type="text/css">
	.st0{fill:#010202;}
</style>
<path id="XMLID_4_" class="st0" d="M205,150c-20.5-35.7-45.7-40.9-59.2-45c-0.4-0.1-0.8-0.2-1.1-0.3c0.2-27.9-1.8-50-3.7-57.8
	c-2.3-10-1-11.5-3-14.4c0,0-3,0.5-11.7-11.5C114.5,4.8,109.5,0.8,103.7,0.6v0c-0.1,0-0.3,0-0.4,0v0C97.4,0.8,92.4,4.8,80.7,21
	C72,32.9,69,32.4,69,32.4c-2,3-0.7,4.5-3,14.4c-1.8,7.8-3.9,29.9-3.7,57.7c-0.6,0-1.3,0.2-2,0.4c-13.6,4.1-38.8,9.3-59.3,45
	c-2.3,3.9,3.5-1.1,18.5-6.4s24.8-6.4,35.3-6.5c3-0.1,5.9-3.1,8.3-7.3c1.7,24.9,12,51.1,20.6,78.9c-0.5,7.5-12.7,5.1-15.6,20.5
	c12.1-3.7,19,0.7,22.6,5.2c0.6,2.6,1.2,5.3,1.7,8c1.8,21.7,1.9,96.9,30.5,123.7c-3.3-8.4-9.4-22.3-11.9-45.3
	c2.3-4.4,12.4,0.4,21.8,6.3c-3.5-17.3-18.9-21.5-22.8-29.4c0-3.2,0.1-6.6,0.3-10.1c1.1-21,2.5-35.4,4.9-48.9c0.4-1.7,0.7-3.4,1.1-5
	c3.8-4.3,10.6-8,22-4.5c-2.8-14.7-14-13.1-15.4-19.5c8.5-27.6,18.9-53.7,20.8-78.5c2.2,3.5,4.8,5.9,7.5,6
	c10.5,0.2,20.2,1.3,35.2,6.5C201.5,148.9,207.2,153.9,205,150z"/>
</svg>
